<?xml version="1.0" encoding="UTF-8"?><svg id="Layer_2" xmlns="http://www.w3.org/2000/svg" viewBox="0 0 96 96"><defs><style>.cls-1{fill:#ff8725;}.cls-2{fill:#013477;}</style></defs><g id="Layer_1-2"><path class="cls-1" d="M54.02,89.93C10.29,86.22-4.9,43.8,14.06,17.49,31.29-6.42,78.94-6.21,91.89,20.54c15.21,31.43-16.65,57.37-16.65,57.37,0,0,5.15,3.93,11.64,5.62,2.37.62,5.8,1.07,8.42,1.76.92.24.43,1.4-.38,1.94-5.11,3.41-20.02,4.47-40.89,2.7Z"/><path class="cls-2" d="M81.46,96c-24.92,0-38.26-8.03-45.13-14.96-12.46-12.56-19.37-27.03-18.48-38.69.46-6.11,3.04-11.02,7.44-14.18,3.6-2.58,7.41-3.11,11.33-1.58,3.73,1.46,7.1,4.74,9.57,8.21,7.24-8.36,14.52-10.15,20.65-5.02,3.86,3.23,5.75,8.93,5.06,15.23-1.32,12.08-11.29,23.75-26.66,31.2-.6.29-1.31,0-1.59-.66-.27-.66,0-1.43.61-1.72,14.59-7.08,24.04-17.97,25.26-29.13.59-5.38-.96-10.18-4.15-12.85-6.41-5.37-13.04-.46-17.76,5.13,1.15,1.93,2,3.82,2.44,5.39,1.21,4.31.38,9.48-1.86,11.53-1.24,1.14-2.79,1.29-4.35.44-1.47-.8-2.44-2.31-2.82-4.37-.71-3.87.81-9.44,3.57-13.17-2.24-3.25-5.36-6.41-8.76-7.74-3.17-1.24-6.26-.8-9.19,1.31-3.77,2.71-5.98,6.93-6.38,12.22-.82,10.87,5.8,24.55,17.72,36.57,6.5,6.55,19.16,14.15,42.94,14.26-5.34-2.54-12.91-6.87-12.72-12.94.01-.43.22-.83.56-1.06.05-.03,4.77-3.27,9.58-8.74,4.38-4.99,9.75-12.91,10.44-22.36.75-10.26-4.09-20.4-14.36-30.14-14.39-13.63-45.63-11.11-58.44.72C.27,33.37,1.5,49.11,3.64,57.2c3.71,14.05,14.94,25.26,27.32,27.25.66.11,1.11.77,1.01,1.48-.1.71-.71,1.2-1.36,1.1-13.28-2.13-25.32-14.1-29.28-29.11-3.9-14.8.86-29.75,13.08-41.04,13.77-12.73,46.1-15.35,61.57-.7,10.89,10.31,15.99,21.19,15.18,32.32-.59,8.1-4.45,16.4-11.14,24-4.05,4.6-7.95,7.62-9.41,8.68.62,5.04,10.07,9.31,13.72,10.96.6.27,1.09.49,1.45.67.64.32,1,1.06.86,1.81-.14.75-.73,1.3-1.45,1.32-1.27.04-2.51.06-3.73.06ZM45.99,39.06c-2.04,3.11-3.18,7.45-2.64,10.37.23,1.26.75,2.12,1.55,2.56.9.49,1.39.2,1.73-.1,1.35-1.23,2.11-5.25,1.12-8.78-.33-1.17-.94-2.58-1.76-4.05Z"/></g></svg>