<svg width="24" height="24" viewBox="0 0 24 24" fill="none" xmlns="http://www.w3.org/2000/svg">
<path d="M17.7519 14.011C18.3483 14.0115 18.9201 14.2484 19.3417 14.6697C19.7632 15.091 20 15.6621 20 16.2576V16.8317C20 17.7244 19.68 18.5881 19.0999 19.2661C17.5298 21.0964 15.1427 22 11.9965 22C8.8503 22 6.46415 21.0964 4.89806 19.2641C4.31863 18.5865 4.00021 17.7247 4 16.8337V16.2566C4.00027 15.6611 4.23731 15.0901 4.65905 14.669C5.08079 14.2479 5.65271 14.0112 6.24914 14.011H17.7519ZM17.7519 15.5087H6.24814C6.04922 15.5087 5.85844 15.5876 5.71778 15.7281C5.57712 15.8685 5.49809 16.059 5.49809 16.2576V16.8337C5.49809 17.3679 5.69011 17.8852 6.03813 18.2916C7.29121 19.7584 9.25833 20.5022 11.9955 20.5022C14.7347 20.5022 16.7018 19.7584 17.9589 18.2926C18.3075 17.8855 18.4991 17.3674 18.4989 16.8317V16.2566C18.4986 16.0585 18.4198 15.8686 18.2796 15.7284C18.1394 15.5882 17.9503 15.5092 17.7519 15.5087ZM12.333 3C12.9897 3 13.6399 3.12914 14.2466 3.38003C14.8532 3.63093 15.4045 3.99868 15.8688 4.46228C16.3331 4.92588 16.7014 5.47625 16.9527 6.08197C17.204 6.68769 17.3333 7.3369 17.3333 7.99253C17.3333 8.64815 17.204 9.29736 16.9527 9.90308C16.7014 10.5088 16.3331 11.0592 15.8688 11.5228C15.4045 11.9864 14.8532 12.3541 14.2466 12.605C13.6399 12.8559 12.9897 12.9851 12.333 12.9851C11.0069 12.9851 9.73501 12.4591 8.79727 11.5228C7.85952 10.5865 7.33271 9.31663 7.33271 7.99253C7.33271 6.66843 7.85952 5.39856 8.79727 4.46228C9.73501 3.526 11.0069 3 12.333 3ZM12.333 4.49776C11.8734 4.49776 11.4182 4.58815 10.9935 4.76378C10.5689 4.93941 10.183 5.19683 9.85799 5.52135C9.53297 5.84587 9.27514 6.23113 9.09924 6.65514C8.92334 7.07914 8.8328 7.53359 8.8328 7.99253C8.8328 8.45147 8.92334 8.90591 9.09924 9.32992C9.27514 9.75392 9.53297 10.1392 9.85799 10.4637C10.183 10.7882 10.5689 11.0456 10.9935 11.2213C11.4182 11.3969 11.8734 11.4873 12.333 11.4873C13.2613 11.4873 14.1516 11.1191 14.808 10.4637C15.4645 9.8083 15.8332 8.9194 15.8332 7.99253C15.8332 7.06566 15.4645 6.17675 14.808 5.52135C14.1516 4.86596 13.2613 4.49776 12.333 4.49776Z" fill="#656572" stroke="#656572" stroke-width="0.4" stroke-linejoin="round"/>
</svg>
