<svg width="29" height="34" viewBox="0 0 29 34" fill="none" xmlns="http://www.w3.org/2000/svg">
<g filter="url(#filter0_d_507_975)">
<path d="M15.0037 3.9699L14.9937 3.94985L14.9829 3.93028C14.5843 3.21058 13.9513 2.64909 13.1892 2.33927C12.4272 2.02948 11.5821 1.99 10.7945 2.22741C10.7944 2.22743 10.7943 2.22745 10.7943 2.22748L9.86237 2.50821L9.84917 2.51219L9.83607 2.51653L9.58517 2.59973L9.57055 2.60458L9.55608 2.60988C8.61479 2.95455 7.78441 3.54773 7.15315 4.32641C6.52188 5.10509 6.1133 6.0402 5.97078 7.03243L5.97076 7.03258C5.53942 10.0389 6.51968 13.4153 8.65286 17.1124L8.65301 17.1126C10.7826 20.801 13.2125 23.3339 16.0222 24.4665L16.0222 24.4665C17.0081 24.8638 18.0873 24.9697 19.1316 24.7715C20.1759 24.5734 21.1414 24.0795 21.9131 23.3486L21.9136 23.3481L22.6182 22.6799L22.6337 22.6652L22.6485 22.6499L22.8071 22.4861L22.8225 22.4703L22.8371 22.4538C23.3797 21.8416 23.6976 21.0629 23.7385 20.246C23.7794 19.429 23.5408 18.6225 23.0621 17.9592L23.0621 17.9591L21.298 15.5151L21.285 15.4972L21.2713 15.4799L21.153 15.3304L21.1362 15.3091L21.1183 15.2889C20.7431 14.8641 20.2534 14.5564 19.708 14.4026C19.1626 14.2488 18.5845 14.2554 18.0427 14.4215C18.0426 14.4215 18.0425 14.4215 18.0424 14.4216L15.7045 15.1366C15.671 15.1033 15.6329 15.0631 15.5902 15.0153C15.3486 14.7445 15.0265 14.3005 14.6504 13.6492C14.2297 12.9204 14.0064 12.3937 13.9119 12.06C13.9047 12.0345 13.8984 12.0109 13.8931 11.9891L14.9995 10.9569L15.0108 10.9464L15.0218 10.9355L15.1947 10.7639L15.2105 10.7481L15.2257 10.7317C15.7895 10.1196 16.1613 9.35555 16.2949 8.53416C16.4285 7.71277 16.318 6.87024 15.9771 6.11108L15.9767 6.11031L15.1161 4.19801L15.1083 4.18065L15.0999 4.1636L15.0037 3.9699ZM15.8543 15.2675C15.8616 15.2714 15.8653 15.2739 15.8653 15.2742C15.8653 15.2745 15.8617 15.2725 15.8543 15.2675Z" stroke="#F6FAF9" stroke-width="2"/>
</g>
<defs>
<filter id="filter0_d_507_975" x="-2" y="0.5" width="34" height="34" filterUnits="userSpaceOnUse" color-interpolation-filters="sRGB">
<feFlood flood-opacity="0" result="BackgroundImageFix"/>
<feColorMatrix in="SourceAlpha" type="matrix" values="0 0 0 0 0 0 0 0 0 0 0 0 0 0 0 0 0 0 127 0" result="hardAlpha"/>
<feOffset dy="4"/>
<feGaussianBlur stdDeviation="2"/>
<feComposite in2="hardAlpha" operator="out"/>
<feColorMatrix type="matrix" values="0 0 0 0 0 0 0 0 0 0 0 0 0 0 0 0 0 0 0.25 0"/>
<feBlend mode="normal" in2="BackgroundImageFix" result="effect1_dropShadow_507_975"/>
<feBlend mode="normal" in="SourceGraphic" in2="effect1_dropShadow_507_975" result="shape"/>
</filter>
</defs>
</svg>
