<svg width="97" height="97" viewBox="0 0 97 97" fill="none" xmlns="http://www.w3.org/2000/svg">
<path d="M96.7155 85.0311C96.5988 84.7669 96.4675 84.5102 96.329 84.2611C94.8483 81.6114 93.0249 79.1656 91.2306 76.7348C90.8805 76.2592 90.5304 75.7837 90.1876 75.3081C89.8084 74.7796 89.4218 74.2588 89.0352 73.7379C88.5757 73.1113 88.1162 72.4848 87.6713 71.8733C87.5692 71.7299 87.4671 71.5789 87.3723 71.4279C87.3723 71.4128 87.3723 71.3977 87.3723 71.3826C87.3868 71.2769 87.4087 71.1863 87.4233 71.1335C87.4963 70.8995 87.5838 70.6504 87.6932 70.4013C88.1746 69.3444 88.7435 68.2875 89.2905 67.2609C89.5677 66.74 89.8521 66.2191 90.122 65.6907C96.0518 54.2163 98.5754 38.9976 94.0314 26.5343C93.7251 25.6964 93.3458 24.8207 92.8717 23.8544C81.5008 0.61121 48.8468 -6.5452 27.9138 6.37106C18.7383 12.0403 11.1237 21.5444 9.00119 32.4678C6.40463 45.8068 9.03037 61.6369 19.0155 71.2316C32.7496 84.4423 51.4069 87.0316 69.2109 83.7252C69.5172 83.6648 73.2589 83.0005 75.8774 82.4267C81.3914 84.5857 86.8836 86.4428 92.5581 88.096C93.3167 88.3149 94.0898 88.5414 94.8702 88.4659C96.1539 88.3451 97.2115 87.1977 96.9635 85.8162C96.9125 85.5444 96.8249 85.2878 96.7155 85.0311Z" fill="#FF8725"/>
<path d="M52.5302 72.5309C52.5302 72.5309 78.6198 55.6515 75.5346 37.9794C72.4493 20.3073 52.7563 24.3007 46.9723 34.7258C41.1884 45.1509 38.8325 54.0586 44.5216 54.9419C50.2108 55.8251 48.5405 30.0077 34.0697 26.0143C20.6639 22.3153 0.832234 42.939 26.8417 65.0952C47.7455 82.9032 76.3806 91.9544 86.8107 94.8154C88.1965 95.1929 89.2832 93.5774 88.459 92.362L79.8743 79.6496C79.8743 79.6496 99.4653 64.3705 88.7946 33.9331C79.1595 6.47004 39.0805 -2.09047 15.2228 18.7748C-9.68532 40.5611 -0.721331 96.1742 55.681 91.6675" stroke="#013477" stroke-width="3" stroke-linecap="round" stroke-linejoin="round"/>
</svg>
